<svg width="245" height="100" viewBox="0 0 245 100" fill="none" xmlns="http://www.w3.org/2000/svg">
<path d="M21 73C21 77.63 24.5 79.65 29.17 79.65H61.83L63 95.84C50.17 97 36.17 97 22.17 97C7 97 0 88.9 0 76.18V1H21V73Z" fill="#FF4081"/>
<path d="M153 50C153 88.37 142.61 100 111.42 100C81.39 100 71 88.37 71 50C71 11.63 81.39 0 111.42 0C142.61 0 153 10.47 153 50ZM94.1 50C94.1 75.58 98.72 82.56 112.58 82.56C126.44 82.56 131.06 75.56 131.06 50C131.06 24.44 126.44 17.44 112.58 17.44C97.56 16.28 94.1 24.42 94.1 50Z" fill="#FF4081"/>
<path d="M245 59.24C245 88.35 234.5 100 207.67 100C178.5 100 168 89.52 168 59.24V1H189V59.24C189 76.71 193.67 82.53 206.5 82.53C219.33 82.53 224 76.71 224 59.24V1H245V59.24Z" fill="#FF4081"/>
</svg>